<svg width="30" height="31" viewBox="0 0 30 31" fill="none" xmlns="http://www.w3.org/2000/svg">
<path d="M29.9034 8.96654C29.8851 7.69162 29.6518 6.42681 29.2054 5.23441C28.424 3.19825 26.8331 1.58818 24.819 0.799982C23.6545 0.357045 22.4234 0.119576 21.1773 0.0926296C19.5746 0.0202102 19.0665 0 14.9983 0C10.9301 0 10.4087 1.12933e-07 8.81775 0.0926296C7.5733 0.119576 6.34218 0.357045 5.1777 0.799982C3.16359 1.58818 1.57097 3.19825 0.791315 5.23441C0.353176 6.41165 0.116615 7.65625 0.0932919 8.91433C0.021657 10.5362 0 11.0499 0 15.1626C0 19.2754 -1.24121e-08 19.8008 0.0932919 21.4109C0.118281 22.6707 0.353176 23.9136 0.791315 25.0942C1.57263 27.1287 3.16359 28.7387 5.17937 29.5269C6.33885 29.985 7.56997 30.2444 8.81942 30.2848C10.4237 30.3572 10.9318 30.3791 15 30.3791C19.0682 30.3791 19.5896 30.3791 21.1806 30.2848C22.425 30.2595 23.6562 30.0221 24.8223 29.5791C26.8364 28.7893 28.4274 27.1792 29.2087 25.1447C29.6468 23.9658 29.8817 22.7229 29.9067 21.4614C29.9783 19.8412 30 19.3276 30 15.2131C29.9967 11.1004 29.9967 10.5783 29.9034 8.96654ZM14.9883 22.9401C10.7336 22.9401 7.28676 19.4556 7.28676 15.1542C7.28676 10.8528 10.7336 7.36826 14.9883 7.36826C19.2398 7.36826 22.6899 10.8528 22.6899 15.1542C22.6899 19.4556 19.2398 22.9401 14.9883 22.9401ZM22.9964 8.8958C22.0019 8.8958 21.2006 8.08403 21.2006 7.08026C21.2006 6.0765 22.0019 5.26473 22.9964 5.26473C23.9877 5.26473 24.7907 6.0765 24.7907 7.08026C24.7907 8.08403 23.9877 8.8958 22.9964 8.8958Z" fill="white"/>
<path d="M14.9881 20.2113C17.7511 20.2113 19.9909 17.947 19.9909 15.1538C19.9909 12.3605 17.7511 10.0962 14.9881 10.0962C12.2252 10.0962 9.98535 12.3605 9.98535 15.1538C9.98535 17.947 12.2252 20.2113 14.9881 20.2113Z" fill="white"/>
</svg>
